<?xml version="1.0" encoding="UTF-8"?>
<svg xmlns="http://www.w3.org/2000/svg" version="1.1" viewBox="0 0 1414.4 1574.4">
  <defs>
    <style>
      .cls-1 {
        fill: #c7664c;
      }

      .cls-2 {
        fill: #fff;
      }
    </style>
  </defs>
  <!-- Generator: Adobe Illustrator 28.6.0, SVG Export Plug-In . SVG Version: 1.2.0 Build 709)  -->
  <g>
    <g id="Capa_1">
      <g>
        <polygon class="cls-1" points="209.4 573.1 209.4 270.5 395.6 270.5 395.6 408.9 209.4 573.1"/>
        <path class="cls-1" d="M408.9,792.2h227.8l70.5-219.2,71.4,219.2h227l-183.8,138.1,70.3,217.9-184.8-136-186.8,138.9,21.8-67s51.4-62.9,108.9-117.4l57.6-54.6,74.8-62.4s-24.3,0-80.6,24c-56.3,24-112.2,54.6-112.2,54.6l-181.8-136Z"/>
        <g>
          <polygon class="cls-2" points="1342.1 930.3 1342.1 846.2 1342.1 792.2 1004.3 792.2 821.7 930.3 1138.9 930.3 1138.9 1295.1 286.5 1295.1 286.5 846.2 83.3 846.2 83.3 1525.9 1342.1 1525.9 1342.1 930.3"/>
          <polygon class="cls-2" points="712.7 300.3 1075.1 667.3 1342.1 667.3 712.7 29.9 83.3 667.3 350.3 667.3 712.7 300.3"/>
        </g>
      </g>
    </g>
  </g>
</svg>